<mxfile host="Electron" agent="Mozilla/5.0 (Windows NT 10.0; Win64; x64) AppleWebKit/537.36 (KHTML, like Gecko) draw.io/24.7.5 Chrome/126.0.6478.183 Electron/31.3.0 Safari/537.36" version="24.7.5">
  <diagram name="Page-1" id="4qWduVcJSl134Uv_ZRD9">
    <mxGraphModel dx="1243" dy="619" grid="1" gridSize="10" guides="1" tooltips="1" connect="1" arrows="1" fold="1" page="1" pageScale="1" pageWidth="850" pageHeight="1100" math="0" shadow="0">
      <root>
        <mxCell id="0" />
        <mxCell id="1" parent="0" />
        <mxCell id="5PGjJb4X_6iN3Xwbs_QI-3" value="" style="edgeStyle=orthogonalEdgeStyle;rounded=0;orthogonalLoop=1;jettySize=auto;html=1;" edge="1" parent="1" source="5PGjJb4X_6iN3Xwbs_QI-1" target="5PGjJb4X_6iN3Xwbs_QI-2">
          <mxGeometry relative="1" as="geometry" />
        </mxCell>
        <mxCell id="5PGjJb4X_6iN3Xwbs_QI-1" value="Start" style="ellipse;whiteSpace=wrap;html=1;" vertex="1" parent="1">
          <mxGeometry x="10" y="30" width="120" height="80" as="geometry" />
        </mxCell>
        <mxCell id="5PGjJb4X_6iN3Xwbs_QI-5" value="" style="edgeStyle=orthogonalEdgeStyle;rounded=0;orthogonalLoop=1;jettySize=auto;html=1;" edge="1" parent="1" source="5PGjJb4X_6iN3Xwbs_QI-2" target="5PGjJb4X_6iN3Xwbs_QI-4">
          <mxGeometry relative="1" as="geometry" />
        </mxCell>
        <mxCell id="5PGjJb4X_6iN3Xwbs_QI-2" value="Plan" style="whiteSpace=wrap;html=1;" vertex="1" parent="1">
          <mxGeometry x="210" y="40" width="120" height="60" as="geometry" />
        </mxCell>
        <mxCell id="5PGjJb4X_6iN3Xwbs_QI-7" value="" style="edgeStyle=orthogonalEdgeStyle;rounded=0;orthogonalLoop=1;jettySize=auto;html=1;" edge="1" parent="1" source="5PGjJb4X_6iN3Xwbs_QI-4" target="5PGjJb4X_6iN3Xwbs_QI-6">
          <mxGeometry relative="1" as="geometry" />
        </mxCell>
        <mxCell id="5PGjJb4X_6iN3Xwbs_QI-4" value="Input" style="whiteSpace=wrap;html=1;" vertex="1" parent="1">
          <mxGeometry x="410" y="40" width="120" height="60" as="geometry" />
        </mxCell>
        <mxCell id="5PGjJb4X_6iN3Xwbs_QI-9" value="" style="edgeStyle=orthogonalEdgeStyle;rounded=0;orthogonalLoop=1;jettySize=auto;html=1;" edge="1" parent="1" source="5PGjJb4X_6iN3Xwbs_QI-6" target="5PGjJb4X_6iN3Xwbs_QI-8">
          <mxGeometry relative="1" as="geometry" />
        </mxCell>
        <mxCell id="5PGjJb4X_6iN3Xwbs_QI-6" value="Prcess" style="whiteSpace=wrap;html=1;" vertex="1" parent="1">
          <mxGeometry x="610" y="40" width="120" height="60" as="geometry" />
        </mxCell>
        <mxCell id="5PGjJb4X_6iN3Xwbs_QI-11" value="" style="edgeStyle=orthogonalEdgeStyle;rounded=0;orthogonalLoop=1;jettySize=auto;html=1;" edge="1" parent="1" source="5PGjJb4X_6iN3Xwbs_QI-8" target="5PGjJb4X_6iN3Xwbs_QI-10">
          <mxGeometry relative="1" as="geometry" />
        </mxCell>
        <mxCell id="5PGjJb4X_6iN3Xwbs_QI-8" value="Output" style="whiteSpace=wrap;html=1;" vertex="1" parent="1">
          <mxGeometry x="810" y="40" width="120" height="60" as="geometry" />
        </mxCell>
        <mxCell id="5PGjJb4X_6iN3Xwbs_QI-10" value="Stop" style="ellipse;whiteSpace=wrap;html=1;" vertex="1" parent="1">
          <mxGeometry x="980" y="30" width="120" height="80" as="geometry" />
        </mxCell>
        <mxCell id="5PGjJb4X_6iN3Xwbs_QI-12" value="&lt;div&gt;Declare Variables:&lt;/div&gt;&lt;div&gt;hours&lt;/div&gt;&lt;div&gt;wholesale_cost&lt;/div&gt;&lt;div&gt;labor_rate = 30&lt;/div&gt;&lt;div&gt;materials_cost&lt;/div&gt;&lt;div&gt;total_cost&lt;/div&gt;&lt;div&gt;&lt;br&gt;&lt;/div&gt;" style="rounded=0;whiteSpace=wrap;html=1;align=left;" vertex="1" parent="1">
          <mxGeometry x="210" y="120" width="110" height="110" as="geometry" />
        </mxCell>
        <mxCell id="5PGjJb4X_6iN3Xwbs_QI-13" value="&lt;div&gt;&lt;div&gt;&lt;font face=&quot;Times New Roman&quot;&gt;Get hours&lt;/font&gt;&lt;/div&gt;&lt;div&gt;&lt;font face=&quot;Times New Roman&quot;&gt;Get wholesale_cost&lt;/font&gt;&lt;/div&gt;&lt;/div&gt;&lt;div&gt;&lt;br&gt;&lt;/div&gt;" style="rounded=0;whiteSpace=wrap;html=1;align=left;" vertex="1" parent="1">
          <mxGeometry x="410" y="130" width="110" height="70" as="geometry" />
        </mxCell>
        <mxCell id="5PGjJb4X_6iN3Xwbs_QI-14" value="&lt;div style=&quot;text-align: left;&quot;&gt;&lt;div&gt;materials_cost = wholesale_cost * 1.2&lt;/div&gt;&lt;div&gt;total_cost = (hours * labor_rate) + materials_cost&lt;/div&gt;&lt;div&gt;&lt;br&gt;&lt;/div&gt;&lt;/div&gt;" style="rounded=0;whiteSpace=wrap;html=1;" vertex="1" parent="1">
          <mxGeometry x="570" y="140" width="220" height="70" as="geometry" />
        </mxCell>
        <mxCell id="5PGjJb4X_6iN3Xwbs_QI-15" value="&lt;div style=&quot;text-align: left;&quot;&gt;&lt;div&gt;Display total_cost&lt;/div&gt;&lt;div&gt;Display &quot;End of program&quot;&lt;/div&gt;&lt;div&gt;&lt;br&gt;&lt;/div&gt;&lt;/div&gt;" style="rounded=0;whiteSpace=wrap;html=1;" vertex="1" parent="1">
          <mxGeometry x="810" y="140" width="150" height="70" as="geometry" />
        </mxCell>
        <mxCell id="5PGjJb4X_6iN3Xwbs_QI-16" style="edgeStyle=orthogonalEdgeStyle;rounded=0;orthogonalLoop=1;jettySize=auto;html=1;exitX=0.5;exitY=1;exitDx=0;exitDy=0;" edge="1" parent="1" source="5PGjJb4X_6iN3Xwbs_QI-14" target="5PGjJb4X_6iN3Xwbs_QI-14">
          <mxGeometry relative="1" as="geometry" />
        </mxCell>
      </root>
    </mxGraphModel>
  </diagram>
</mxfile>
